<svg width="15.000000" height="17.000000" viewBox="0 0 15 17" fill="none" xmlns="http://www.w3.org/2000/svg" xmlns:xlink="http://www.w3.org/1999/xlink">
	<desc>
			Created with Pixso.
	</desc>
	<defs>
		<clipPath id="clip190_1610">
			<rect id="instagram-brands 1" width="14.899101" height="17.000000" transform="translate(-0.316040 0.000000)" fill="white" fill-opacity="0"/>
		</clipPath>
	</defs>
	<rect id="instagram-brands 1" width="14.899101" height="17.000000" transform="translate(-0.316040 0.000000)" fill="#FFFFFF" fill-opacity="0"/>
	<g clip-path="url(#clip190_1610)">
		<path id="Vector" d="M7.13 4.68C5.02 4.68 3.31 6.38 3.31 8.49C3.31 10.6 5.02 12.31 7.13 12.31C9.25 12.31 10.95 10.6 10.95 8.49C10.95 6.38 9.25 4.68 7.13 4.68ZM7.13 10.97C5.76 10.97 4.65 9.86 4.65 8.49C4.65 7.12 5.76 6.01 7.13 6.01C8.5 6.01 9.62 7.12 9.62 8.49C9.62 9.86 8.5 10.97 7.13 10.97ZM12 4.52C12 5.02 11.6 5.41 11.11 5.41C10.61 5.41 10.22 5.01 10.22 4.52C10.22 4.03 10.62 3.63 11.11 3.63C11.6 3.63 12 4.03 12 4.52ZM14.53 5.42C14.47 4.23 14.2 3.18 13.33 2.31C12.46 1.44 11.4 1.16 10.2 1.1C8.97 1.03 5.29 1.03 4.06 1.1C2.86 1.16 1.81 1.43 0.93 2.3C0.06 3.17 -0.21 4.23 -0.27 5.42C-0.34 6.65 -0.34 10.33 -0.27 11.56C-0.21 12.75 0.06 13.81 0.93 14.68C1.81 15.55 2.86 15.82 4.06 15.88C5.29 15.95 8.97 15.95 10.2 15.88C11.4 15.82 12.46 15.55 13.33 14.68C14.2 13.81 14.47 12.75 14.53 11.56C14.6 10.33 14.6 6.65 14.53 5.42ZM12.94 12.88C12.68 13.53 12.18 14.03 11.53 14.29C10.54 14.68 8.22 14.59 7.13 14.59C6.05 14.59 3.72 14.68 2.74 14.29C2.09 14.03 1.58 13.53 1.32 12.88C0.93 11.9 1.02 9.57 1.02 8.49C1.02 7.41 0.94 5.08 1.32 4.11C1.58 3.45 2.08 2.95 2.74 2.69C3.72 2.3 6.05 2.39 7.13 2.39C8.22 2.39 10.55 2.31 11.53 2.69C12.18 2.95 12.68 3.45 12.94 4.11C13.33 5.09 13.24 7.41 13.24 8.49C13.24 9.57 13.33 11.9 12.94 12.88Z" fill="#000000" fill-opacity="1.000000" fill-rule="nonzero"/>
	</g>
</svg>
