<svg width="12.000000" height="16.000000" viewBox="0 0 12 16" fill="none" xmlns="http://www.w3.org/2000/svg" xmlns:xlink="http://www.w3.org/1999/xlink">
	<desc>
			Created with Pixso.
	</desc>
	<defs>
		<clipPath id="clip190_1906">
			<rect id="pinterest-p-brands 1" width="11.919281" height="16.000000" transform="translate(-0.592041 0.000000)" fill="white" fill-opacity="0"/>
		</clipPath>
	</defs>
	<rect id="pinterest-p-brands 1" width="11.919281" height="16.000000" transform="translate(-0.592041 0.000000)" fill="#FFFFFF" fill-opacity="0"/>
	<g clip-path="url(#clip190_1906)">
		<path id="Vector" d="M5.73 0.2C2.55 0.2 -0.6 2.34 -0.6 5.8C-0.6 8 0.63 9.25 1.38 9.25C1.68 9.25 1.86 8.38 1.86 8.14C1.86 7.85 1.13 7.23 1.13 6.02C1.13 3.51 3.03 1.73 5.48 1.73C7.6 1.73 9.16 2.94 9.16 5.16C9.16 6.82 8.5 9.93 6.36 9.93C5.59 9.93 4.92 9.37 4.92 8.56C4.92 7.38 5.74 6.24 5.74 5.02C5.74 2.95 2.83 3.32 2.83 5.82C2.83 6.35 2.89 6.93 3.13 7.41C2.7 9.26 1.82 12.03 1.82 13.94C1.82 14.53 1.91 15.11 1.96 15.7C2.07 15.82 2.02 15.81 2.18 15.75C3.74 13.6 3.69 13.17 4.39 10.35C4.78 11.08 5.76 11.48 6.55 11.48C9.84 11.48 11.32 8.24 11.32 5.33C11.32 2.22 8.66 0.2 5.73 0.2Z" fill="#000000" fill-opacity="1.000000" fill-rule="nonzero"/>
	</g>
</svg>
