<svg width="341" height="124" viewBox="0 0 341 124" fill="none" xmlns="http://www.w3.org/2000/svg">
<path d="M287.719 76.146H21.2783C9.52661 76.146 0 86.6528 0 99.6137C0 112.575 9.52661 123.081 21.2783 123.081H287.719C299.471 123.081 308.998 112.575 308.998 99.6137C308.998 86.6528 299.471 76.146 287.719 76.146Z" fill="#E1E1E1"/>
<path d="M245.213 76.146H319.816C325.435 76.146 330.823 78.6185 334.795 83.0196C338.768 87.4206 341 93.3897 341 99.6137C341 105.838 338.768 111.807 334.795 116.208C330.823 120.609 325.435 123.081 319.816 123.081H245.213V76.146Z" fill="#F16D7F"/>
<path d="M270.227 97.3881C270.185 97.4581 270.139 97.5117 270.087 97.5491C270.041 97.5817 269.982 97.5981 269.912 97.5981C269.833 97.5981 269.74 97.5584 269.632 97.4791C269.525 97.3997 269.39 97.3134 269.226 97.2201C269.068 97.1221 268.874 97.0334 268.645 96.9541C268.421 96.8747 268.148 96.8351 267.826 96.8351C267.523 96.8351 267.255 96.8771 267.021 96.9611C266.793 97.0404 266.599 97.1501 266.44 97.2901C266.286 97.4301 266.17 97.5957 266.09 97.7871C266.011 97.9737 265.971 98.1767 265.971 98.3961C265.971 98.6761 266.039 98.9094 266.174 99.0961C266.314 99.2781 266.496 99.4344 266.72 99.5651C266.949 99.6957 267.206 99.8101 267.49 99.9081C267.78 100.001 268.074 100.099 268.372 100.202C268.676 100.305 268.97 100.421 269.254 100.552C269.544 100.678 269.8 100.839 270.024 101.035C270.253 101.231 270.435 101.471 270.57 101.756C270.71 102.041 270.78 102.391 270.78 102.806C270.78 103.245 270.706 103.658 270.556 104.045C270.407 104.428 270.188 104.761 269.898 105.046C269.614 105.331 269.261 105.555 268.841 105.718C268.426 105.881 267.952 105.963 267.42 105.963C266.767 105.963 266.174 105.846 265.642 105.613C265.11 105.375 264.655 105.055 264.277 104.654L264.669 104.01C264.707 103.959 264.751 103.917 264.802 103.884C264.858 103.847 264.919 103.828 264.984 103.828C265.045 103.828 265.113 103.854 265.187 103.905C265.267 103.952 265.355 104.012 265.453 104.087C265.551 104.162 265.663 104.243 265.789 104.332C265.915 104.421 266.058 104.502 266.216 104.577C266.38 104.652 266.564 104.715 266.769 104.766C266.975 104.813 267.206 104.836 267.462 104.836C267.784 104.836 268.071 104.792 268.323 104.703C268.575 104.614 268.788 104.491 268.96 104.332C269.138 104.169 269.273 103.975 269.366 103.751C269.46 103.527 269.506 103.277 269.506 103.002C269.506 102.699 269.436 102.451 269.296 102.26C269.161 102.064 268.981 101.901 268.757 101.77C268.533 101.639 268.277 101.53 267.987 101.441C267.698 101.348 267.404 101.254 267.105 101.161C266.807 101.063 266.513 100.951 266.223 100.825C265.934 100.699 265.677 100.536 265.453 100.335C265.229 100.134 265.047 99.8847 264.907 99.5861C264.772 99.2827 264.704 98.9094 264.704 98.4661C264.704 98.1114 264.772 97.7684 264.907 97.4371C265.047 97.1057 265.248 96.8117 265.509 96.5551C265.775 96.2984 266.1 96.0931 266.482 95.9391C266.87 95.7851 267.313 95.7081 267.812 95.7081C268.372 95.7081 268.881 95.7967 269.338 95.9741C269.8 96.1514 270.206 96.4081 270.556 96.7441L270.227 97.3881ZM278.098 98.7601V105.851H277.356C277.179 105.851 277.067 105.765 277.02 105.592L276.922 104.829C276.614 105.17 276.269 105.445 275.886 105.655C275.503 105.86 275.065 105.963 274.57 105.963C274.183 105.963 273.84 105.9 273.541 105.774C273.247 105.643 273 105.461 272.799 105.228C272.598 104.995 272.447 104.712 272.344 104.381C272.246 104.05 272.197 103.683 272.197 103.282V98.7601H273.443V103.282C273.443 103.819 273.564 104.234 273.807 104.528C274.054 104.822 274.43 104.969 274.934 104.969C275.303 104.969 275.646 104.883 275.963 104.71C276.285 104.533 276.581 104.29 276.852 103.982V98.7601H278.098ZM281.327 104.143C281.555 104.451 281.805 104.668 282.076 104.794C282.351 104.92 282.652 104.983 282.979 104.983C283.646 104.983 284.157 104.747 284.512 104.276C284.866 103.805 285.044 103.102 285.044 102.169C285.044 101.301 284.885 100.664 284.568 100.258C284.255 99.8474 283.807 99.6421 283.224 99.6421C282.818 99.6421 282.463 99.7354 282.16 99.9221C281.861 100.109 281.583 100.372 281.327 100.713V104.143ZM281.327 99.7821C281.625 99.4367 281.961 99.1614 282.335 98.9561C282.713 98.7507 283.147 98.6481 283.637 98.6481C284.052 98.6481 284.425 98.7274 284.757 98.8861C285.093 99.0447 285.377 99.2757 285.611 99.5791C285.844 99.8777 286.021 100.242 286.143 100.671C286.269 101.1 286.332 101.583 286.332 102.12C286.332 102.694 286.262 103.217 286.122 103.688C285.982 104.159 285.779 104.563 285.513 104.899C285.251 105.23 284.932 105.489 284.554 105.676C284.176 105.858 283.751 105.949 283.28 105.949C282.813 105.949 282.419 105.863 282.097 105.69C281.779 105.513 281.502 105.263 281.264 104.941L281.201 105.585C281.163 105.762 281.056 105.851 280.879 105.851H280.074V95.5401H281.327V99.7821ZM292.038 99.9291C291.982 100.032 291.895 100.083 291.779 100.083C291.709 100.083 291.629 100.057 291.541 100.006C291.452 99.9547 291.342 99.8987 291.212 99.8381C291.086 99.7727 290.934 99.7144 290.757 99.6631C290.579 99.6071 290.369 99.5791 290.127 99.5791C289.917 99.5791 289.728 99.6071 289.56 99.6631C289.392 99.7144 289.247 99.7867 289.126 99.8801C289.009 99.9734 288.918 100.083 288.853 100.209C288.792 100.33 288.762 100.463 288.762 100.608C288.762 100.79 288.813 100.942 288.916 101.063C289.023 101.184 289.163 101.289 289.336 101.378C289.508 101.467 289.704 101.546 289.924 101.616C290.143 101.681 290.367 101.754 290.596 101.833C290.829 101.908 291.055 101.992 291.275 102.085C291.494 102.178 291.69 102.295 291.863 102.435C292.035 102.575 292.173 102.748 292.276 102.953C292.383 103.154 292.437 103.396 292.437 103.681C292.437 104.008 292.378 104.311 292.262 104.591C292.145 104.866 291.972 105.107 291.744 105.312C291.515 105.513 291.235 105.671 290.904 105.788C290.572 105.905 290.19 105.963 289.756 105.963C289.261 105.963 288.813 105.884 288.412 105.725C288.01 105.562 287.67 105.354 287.39 105.102L287.684 104.626C287.721 104.565 287.765 104.519 287.817 104.486C287.868 104.453 287.933 104.437 288.013 104.437C288.097 104.437 288.185 104.47 288.279 104.535C288.372 104.6 288.484 104.673 288.615 104.752C288.75 104.831 288.913 104.904 289.105 104.969C289.296 105.034 289.534 105.067 289.819 105.067C290.061 105.067 290.274 105.037 290.456 104.976C290.638 104.911 290.789 104.824 290.911 104.717C291.032 104.61 291.121 104.486 291.177 104.346C291.237 104.206 291.268 104.057 291.268 103.898C291.268 103.702 291.214 103.541 291.107 103.415C291.004 103.284 290.866 103.175 290.694 103.086C290.521 102.993 290.323 102.913 290.099 102.848C289.879 102.778 289.653 102.706 289.42 102.631C289.191 102.556 288.965 102.472 288.741 102.379C288.521 102.281 288.325 102.16 288.153 102.015C287.98 101.87 287.84 101.693 287.733 101.483C287.63 101.268 287.579 101.009 287.579 100.706C287.579 100.435 287.635 100.176 287.747 99.9291C287.859 99.6771 288.022 99.4577 288.237 99.2711C288.451 99.0797 288.715 98.9281 289.028 98.8161C289.34 98.7041 289.697 98.6481 290.099 98.6481C290.565 98.6481 290.983 98.7227 291.352 98.8721C291.725 99.0167 292.047 99.2174 292.318 99.4741L292.038 99.9291ZM298.899 100.02C298.862 100.071 298.825 100.111 298.787 100.139C298.75 100.167 298.699 100.181 298.633 100.181C298.563 100.181 298.486 100.153 298.402 100.097C298.318 100.036 298.213 99.9711 298.087 99.9011C297.966 99.8311 297.814 99.7681 297.632 99.7121C297.455 99.6514 297.236 99.6211 296.974 99.6211C296.624 99.6211 296.316 99.6841 296.05 99.8101C295.784 99.9314 295.56 100.109 295.378 100.342C295.201 100.575 295.066 100.858 294.972 101.189C294.884 101.52 294.839 101.891 294.839 102.302C294.839 102.731 294.888 103.114 294.986 103.45C295.084 103.781 295.222 104.061 295.399 104.29C295.581 104.514 295.798 104.687 296.05 104.808C296.307 104.925 296.594 104.983 296.911 104.983C297.215 104.983 297.464 104.948 297.66 104.878C297.856 104.803 298.017 104.722 298.143 104.633C298.274 104.544 298.381 104.465 298.465 104.395C298.554 104.32 298.64 104.283 298.724 104.283C298.827 104.283 298.906 104.323 298.962 104.402L299.312 104.857C299.158 105.048 298.983 105.212 298.787 105.347C298.591 105.482 298.379 105.597 298.15 105.69C297.926 105.779 297.691 105.844 297.443 105.886C297.196 105.928 296.944 105.949 296.687 105.949C296.244 105.949 295.831 105.867 295.448 105.704C295.07 105.541 294.741 105.305 294.461 104.997C294.181 104.684 293.962 104.302 293.803 103.849C293.645 103.396 293.565 102.881 293.565 102.302C293.565 101.775 293.638 101.287 293.782 100.839C293.932 100.391 294.146 100.006 294.426 99.6841C294.711 99.3574 295.059 99.1031 295.469 98.9211C295.885 98.7391 296.361 98.6481 296.897 98.6481C297.397 98.6481 297.835 98.7297 298.213 98.8931C298.596 99.0517 298.934 99.2781 299.228 99.5721L298.899 100.02ZM301.833 100.181C302.057 99.6957 302.332 99.3177 302.659 99.0471C302.986 98.7717 303.385 98.6341 303.856 98.6341C304.005 98.6341 304.148 98.6504 304.283 98.6831C304.423 98.7157 304.547 98.7671 304.654 98.8371L304.563 99.7681C304.535 99.8847 304.465 99.9431 304.353 99.9431C304.288 99.9431 304.192 99.9291 304.066 99.9011C303.94 99.8731 303.798 99.8591 303.639 99.8591C303.415 99.8591 303.214 99.8917 303.037 99.9571C302.864 100.022 302.708 100.12 302.568 100.251C302.433 100.377 302.309 100.536 302.197 100.727C302.09 100.914 301.992 101.128 301.903 101.371V105.851H300.65V98.7601H301.364C301.499 98.7601 301.593 98.7857 301.644 98.8371C301.695 98.8884 301.73 98.9771 301.749 99.1031L301.833 100.181ZM307.065 98.7601V105.851H305.819V98.7601H307.065ZM307.331 96.5341C307.331 96.6554 307.306 96.7697 307.254 96.8771C307.208 96.9797 307.142 97.0731 307.058 97.1571C306.979 97.2364 306.883 97.2994 306.771 97.3461C306.664 97.3927 306.55 97.4161 306.428 97.4161C306.307 97.4161 306.193 97.3927 306.085 97.3461C305.983 97.2994 305.892 97.2364 305.812 97.1571C305.733 97.0731 305.67 96.9797 305.623 96.8771C305.577 96.7697 305.553 96.6554 305.553 96.5341C305.553 96.4127 305.577 96.2984 305.623 96.1911C305.67 96.0791 305.733 95.9834 305.812 95.9041C305.892 95.8201 305.983 95.7547 306.085 95.7081C306.193 95.6614 306.307 95.6381 306.428 95.6381C306.55 95.6381 306.664 95.6614 306.771 95.7081C306.883 95.7547 306.979 95.8201 307.058 95.9041C307.142 95.9834 307.208 96.0791 307.254 96.1911C307.306 96.2984 307.331 96.4127 307.331 96.5341ZM310.366 104.143C310.594 104.451 310.844 104.668 311.115 104.794C311.39 104.92 311.691 104.983 312.018 104.983C312.685 104.983 313.196 104.747 313.551 104.276C313.905 103.805 314.083 103.102 314.083 102.169C314.083 101.301 313.924 100.664 313.607 100.258C313.294 99.8474 312.846 99.6421 312.263 99.6421C311.857 99.6421 311.502 99.7354 311.199 99.9221C310.9 100.109 310.622 100.372 310.366 100.713V104.143ZM310.366 99.7821C310.664 99.4367 311 99.1614 311.374 98.9561C311.752 98.7507 312.186 98.6481 312.676 98.6481C313.091 98.6481 313.464 98.7274 313.796 98.8861C314.132 99.0447 314.416 99.2757 314.65 99.5791C314.883 99.8777 315.06 100.242 315.182 100.671C315.308 101.1 315.371 101.583 315.371 102.12C315.371 102.694 315.301 103.217 315.161 103.688C315.021 104.159 314.818 104.563 314.552 104.899C314.29 105.23 313.971 105.489 313.593 105.676C313.215 105.858 312.79 105.949 312.319 105.949C311.852 105.949 311.458 105.863 311.136 105.69C310.818 105.513 310.541 105.263 310.303 104.941L310.24 105.585C310.202 105.762 310.095 105.851 309.918 105.851H309.113V95.5401H310.366V99.7821ZM321.693 101.532C321.693 101.243 321.651 100.979 321.567 100.741C321.487 100.498 321.368 100.291 321.21 100.118C321.056 99.9407 320.867 99.8054 320.643 99.7121C320.419 99.6141 320.164 99.5651 319.88 99.5651C319.282 99.5651 318.809 99.7401 318.459 100.09C318.113 100.435 317.899 100.916 317.815 101.532H321.693ZM322.701 104.857C322.547 105.044 322.362 105.207 322.148 105.347C321.933 105.482 321.702 105.594 321.455 105.683C321.212 105.772 320.96 105.837 320.699 105.879C320.437 105.926 320.178 105.949 319.922 105.949C319.432 105.949 318.979 105.867 318.564 105.704C318.153 105.536 317.796 105.293 317.493 104.976C317.194 104.654 316.961 104.257 316.793 103.786C316.625 103.315 316.541 102.773 316.541 102.162C316.541 101.667 316.615 101.205 316.765 100.776C316.919 100.347 317.138 99.9757 317.423 99.6631C317.707 99.3457 318.055 99.0984 318.466 98.9211C318.876 98.7391 319.338 98.6481 319.852 98.6481C320.276 98.6481 320.668 98.7204 321.028 98.8651C321.392 99.0051 321.704 99.2104 321.966 99.4811C322.232 99.7471 322.439 100.078 322.589 100.475C322.738 100.867 322.813 101.315 322.813 101.819C322.813 102.015 322.792 102.146 322.75 102.211C322.708 102.276 322.628 102.309 322.512 102.309H317.773C317.787 102.757 317.847 103.147 317.955 103.478C318.067 103.809 318.221 104.087 318.417 104.311C318.613 104.53 318.846 104.696 319.117 104.808C319.387 104.915 319.691 104.969 320.027 104.969C320.339 104.969 320.608 104.934 320.832 104.864C321.06 104.789 321.256 104.71 321.42 104.626C321.583 104.542 321.718 104.465 321.826 104.395C321.938 104.32 322.033 104.283 322.113 104.283C322.215 104.283 322.295 104.323 322.351 104.402L322.701 104.857Z" fill="white"/>
<path opacity="0.671" d="M28.542 104.745L28.535 105.851H22.354V95.8201H28.535V96.9261H23.712V100.258H27.618V101.322H23.712V104.745H28.542ZM31.1247 99.7891C31.2787 99.6164 31.442 99.4601 31.6147 99.3201C31.7873 99.1801 31.9693 99.0611 32.1607 98.9631C32.3567 98.8604 32.562 98.7834 32.7767 98.7321C32.996 98.6761 33.2317 98.6481 33.4837 98.6481C33.871 98.6481 34.2117 98.7134 34.5057 98.8441C34.8043 98.9701 35.0517 99.1521 35.2477 99.3901C35.4483 99.6234 35.6 99.9057 35.7027 100.237C35.8053 100.568 35.8567 100.935 35.8567 101.336V105.851H34.6037V101.336C34.6037 100.799 34.48 100.384 34.2327 100.09C33.99 99.7914 33.619 99.6421 33.1197 99.6421C32.751 99.6421 32.4057 99.7307 32.0837 99.9081C31.7663 100.085 31.4723 100.326 31.2017 100.629V105.851H29.9487V98.7601H30.6977C30.875 98.7601 30.9847 98.8464 31.0267 99.0191L31.1247 99.7891ZM39.8366 105.963C39.2766 105.963 38.8449 105.807 38.5416 105.494C38.2429 105.181 38.0936 104.731 38.0936 104.143V99.8031H37.2396C37.1649 99.8031 37.1019 99.7821 37.0506 99.7401C36.9993 99.6934 36.9736 99.6234 36.9736 99.5301V99.0331L38.1356 98.8861L38.4226 96.6951C38.4366 96.6251 38.4669 96.5691 38.5136 96.5271C38.5649 96.4804 38.6303 96.4571 38.7096 96.4571H39.3396V98.9001H41.3906V99.8031H39.3396V104.059C39.3396 104.358 39.4119 104.579 39.5566 104.724C39.7013 104.869 39.8879 104.941 40.1166 104.941C40.2473 104.941 40.3593 104.925 40.4526 104.892C40.5506 104.855 40.6346 104.815 40.7046 104.773C40.7746 104.731 40.8329 104.694 40.8796 104.661C40.9309 104.624 40.9753 104.605 41.0126 104.605C41.0779 104.605 41.1363 104.645 41.1876 104.724L41.5516 105.319C41.3369 105.52 41.0779 105.678 40.7746 105.795C40.4713 105.907 40.1586 105.963 39.8366 105.963ZM47.3822 101.532C47.3822 101.243 47.3402 100.979 47.2562 100.741C47.1768 100.498 47.0578 100.291 46.8992 100.118C46.7452 99.9407 46.5562 99.8054 46.3322 99.7121C46.1082 99.6141 45.8538 99.5651 45.5692 99.5651C44.9718 99.5651 44.4982 99.7401 44.1482 100.09C43.8028 100.435 43.5882 100.916 43.5042 101.532H47.3822ZM48.3902 104.857C48.2362 105.044 48.0518 105.207 47.8372 105.347C47.6225 105.482 47.3915 105.594 47.1442 105.683C46.9015 105.772 46.6495 105.837 46.3882 105.879C46.1268 105.926 45.8678 105.949 45.6112 105.949C45.1212 105.949 44.6685 105.867 44.2532 105.704C43.8425 105.536 43.4855 105.293 43.1822 104.976C42.8835 104.654 42.6502 104.257 42.4822 103.786C42.3142 103.315 42.2302 102.773 42.2302 102.162C42.2302 101.667 42.3048 101.205 42.4542 100.776C42.6082 100.347 42.8275 99.9757 43.1122 99.6631C43.3968 99.3457 43.7445 99.0984 44.1552 98.9211C44.5658 98.7391 45.0278 98.6481 45.5412 98.6481C45.9658 98.6481 46.3578 98.7204 46.7172 98.8651C47.0812 99.0051 47.3938 99.2104 47.6552 99.4811C47.9212 99.7471 48.1288 100.078 48.2782 100.475C48.4275 100.867 48.5022 101.315 48.5022 101.819C48.5022 102.015 48.4812 102.146 48.4392 102.211C48.3972 102.276 48.3178 102.309 48.2012 102.309H43.4622C43.4762 102.757 43.5368 103.147 43.6442 103.478C43.7562 103.809 43.9102 104.087 44.1062 104.311C44.3022 104.53 44.5355 104.696 44.8062 104.808C45.0768 104.915 45.3802 104.969 45.7162 104.969C46.0288 104.969 46.2972 104.934 46.5212 104.864C46.7498 104.789 46.9458 104.71 47.1092 104.626C47.2725 104.542 47.4078 104.465 47.5152 104.395C47.6272 104.32 47.7228 104.283 47.8022 104.283C47.9048 104.283 47.9842 104.323 48.0402 104.402L48.3902 104.857ZM51.2157 100.181C51.4397 99.6957 51.715 99.3177 52.0417 99.0471C52.3683 98.7717 52.7673 98.6341 53.2387 98.6341C53.388 98.6341 53.5303 98.6504 53.6657 98.6831C53.8057 98.7157 53.9293 98.7671 54.0367 98.8371L53.9457 99.7681C53.9177 99.8847 53.8477 99.9431 53.7357 99.9431C53.6703 99.9431 53.5747 99.9291 53.4487 99.9011C53.3227 99.8731 53.1803 99.8591 53.0217 99.8591C52.7977 99.8591 52.597 99.8917 52.4197 99.9571C52.247 100.022 52.0907 100.12 51.9507 100.251C51.8153 100.377 51.6917 100.536 51.5797 100.727C51.4723 100.914 51.3743 101.128 51.2857 101.371V105.851H50.0327V98.7601H50.7467C50.882 98.7601 50.9753 98.7857 51.0267 98.8371C51.078 98.8884 51.113 98.9771 51.1317 99.1031L51.2157 100.181ZM61.9266 101.854V105.851H60.5686V101.854L56.8936 95.8201H58.0836C58.205 95.8201 58.3006 95.8504 58.3706 95.9111C58.4406 95.9671 58.5013 96.0417 58.5526 96.1351L60.8486 100.034C60.9326 100.197 61.0096 100.351 61.0796 100.496C61.1496 100.636 61.2103 100.778 61.2616 100.923C61.313 100.778 61.3713 100.636 61.4366 100.496C61.502 100.351 61.5743 100.197 61.6536 100.034L63.9426 96.1351C63.9846 96.0557 64.043 95.9834 64.1176 95.9181C64.1923 95.8527 64.288 95.8201 64.4046 95.8201H65.6016L61.9266 101.854ZM68.0607 98.6481C68.5787 98.6481 69.0454 98.7344 69.4607 98.9071C69.8761 99.0797 70.2307 99.3247 70.5247 99.6421C70.8187 99.9594 71.0427 100.344 71.1967 100.797C71.3554 101.245 71.4347 101.747 71.4347 102.302C71.4347 102.862 71.3554 103.366 71.1967 103.814C71.0427 104.262 70.8187 104.645 70.5247 104.962C70.2307 105.279 69.8761 105.524 69.4607 105.697C69.0454 105.865 68.5787 105.949 68.0607 105.949C67.5381 105.949 67.0667 105.865 66.6467 105.697C66.2314 105.524 65.8767 105.279 65.5827 104.962C65.2887 104.645 65.0624 104.262 64.9037 103.814C64.7497 103.366 64.6727 102.862 64.6727 102.302C64.6727 101.747 64.7497 101.245 64.9037 100.797C65.0624 100.344 65.2887 99.9594 65.5827 99.6421C65.8767 99.3247 66.2314 99.0797 66.6467 98.9071C67.0667 98.7344 67.5381 98.6481 68.0607 98.6481ZM68.0607 104.976C68.7607 104.976 69.2834 104.743 69.6287 104.276C69.9741 103.805 70.1467 103.149 70.1467 102.309C70.1467 101.464 69.9741 100.806 69.6287 100.335C69.2834 99.8637 68.7607 99.6281 68.0607 99.6281C67.7061 99.6281 67.3957 99.6887 67.1297 99.8101C66.8684 99.9314 66.6491 100.106 66.4717 100.335C66.2991 100.564 66.1684 100.846 66.0797 101.182C65.9957 101.513 65.9537 101.889 65.9537 102.309C65.9537 103.149 66.1264 103.805 66.4717 104.276C66.8217 104.743 67.3514 104.976 68.0607 104.976ZM78.8461 98.7601V105.851H78.1041C77.9267 105.851 77.8147 105.765 77.7681 105.592L77.6701 104.829C77.3621 105.17 77.0167 105.445 76.6341 105.655C76.2514 105.86 75.8127 105.963 75.3181 105.963C74.9307 105.963 74.5877 105.9 74.2891 105.774C73.9951 105.643 73.7477 105.461 73.5471 105.228C73.3464 104.995 73.1947 104.712 73.0921 104.381C72.9941 104.05 72.9451 103.683 72.9451 103.282V98.7601H74.1911V103.282C74.1911 103.819 74.3124 104.234 74.5551 104.528C74.8024 104.822 75.1781 104.969 75.6821 104.969C76.0507 104.969 76.3937 104.883 76.7111 104.71C77.0331 104.533 77.3294 104.29 77.6001 103.982V98.7601H78.8461ZM82.0047 100.181C82.2287 99.6957 82.5041 99.3177 82.8307 99.0471C83.1574 98.7717 83.5564 98.6341 84.0277 98.6341C84.1771 98.6341 84.3194 98.6504 84.4547 98.6831C84.5947 98.7157 84.7184 98.7671 84.8257 98.8371L84.7347 99.7681C84.7067 99.8847 84.6367 99.9431 84.5247 99.9431C84.4594 99.9431 84.3637 99.9291 84.2377 99.9011C84.1117 99.8731 83.9694 99.8591 83.8107 99.8591C83.5867 99.8591 83.3861 99.8917 83.2087 99.9571C83.0361 100.022 82.8797 100.12 82.7397 100.251C82.6044 100.377 82.4807 100.536 82.3687 100.727C82.2614 100.914 82.1634 101.128 82.0747 101.371V105.851H80.8217V98.7601H81.5357C81.6711 98.7601 81.7644 98.7857 81.8157 98.8371C81.8671 98.8884 81.9021 98.9771 81.9207 99.1031L82.0047 100.181ZM95.6846 104.745L95.6776 105.851H89.4966V95.8201H95.6776V96.9261H90.8546V100.258H94.7606V101.322H90.8546V104.745H95.6846ZM97.0912 105.851V98.7601H97.8402C98.0176 98.7601 98.1272 98.8464 98.1692 99.0191L98.2602 99.7471C98.5216 99.4251 98.8156 99.1614 99.1422 98.9561C99.4689 98.7507 99.8469 98.6481 100.276 98.6481C100.752 98.6481 101.137 98.7811 101.431 99.0471C101.73 99.3131 101.945 99.6724 102.075 100.125C102.178 99.8684 102.309 99.6467 102.467 99.4601C102.631 99.2734 102.813 99.1194 103.013 98.9981C103.214 98.8767 103.426 98.7881 103.65 98.7321C103.879 98.6761 104.11 98.6481 104.343 98.6481C104.717 98.6481 105.048 98.7087 105.337 98.8301C105.631 98.9467 105.879 99.1194 106.079 99.3481C106.285 99.5767 106.441 99.8591 106.548 100.195C106.656 100.526 106.709 100.907 106.709 101.336V105.851H105.456V101.336C105.456 100.781 105.335 100.361 105.092 100.076C104.85 99.7867 104.5 99.6421 104.042 99.6421C103.837 99.6421 103.641 99.6794 103.454 99.7541C103.272 99.8241 103.111 99.9291 102.971 100.069C102.831 100.209 102.719 100.386 102.635 100.601C102.556 100.811 102.516 101.056 102.516 101.336V105.851H101.263V101.336C101.263 100.767 101.149 100.342 100.92 100.062C100.692 99.7821 100.358 99.6421 99.9192 99.6421C99.6112 99.6421 99.3266 99.7261 99.0652 99.8941C98.8039 100.057 98.5636 100.281 98.3442 100.566V105.851H97.0912ZM112.446 102.659C111.872 102.678 111.382 102.724 110.976 102.799C110.575 102.869 110.246 102.962 109.989 103.079C109.737 103.196 109.553 103.333 109.436 103.492C109.324 103.651 109.268 103.828 109.268 104.024C109.268 104.211 109.298 104.372 109.359 104.507C109.42 104.642 109.501 104.754 109.604 104.843C109.711 104.927 109.835 104.99 109.975 105.032C110.12 105.069 110.274 105.088 110.437 105.088C110.656 105.088 110.857 105.067 111.039 105.025C111.221 104.978 111.391 104.913 111.55 104.829C111.713 104.745 111.867 104.645 112.012 104.528C112.161 104.411 112.306 104.278 112.446 104.129V102.659ZM108.421 99.7611C108.813 99.3831 109.235 99.1007 109.688 98.9141C110.141 98.7274 110.642 98.6341 111.193 98.6341C111.59 98.6341 111.942 98.6994 112.25 98.8301C112.558 98.9607 112.817 99.1427 113.027 99.3761C113.237 99.6094 113.396 99.8917 113.503 100.223C113.61 100.554 113.664 100.918 113.664 101.315V105.851H113.111C112.99 105.851 112.896 105.832 112.831 105.795C112.766 105.753 112.714 105.674 112.677 105.557L112.537 104.885C112.35 105.058 112.168 105.212 111.991 105.347C111.814 105.478 111.627 105.59 111.431 105.683C111.235 105.772 111.025 105.839 110.801 105.886C110.582 105.937 110.337 105.963 110.066 105.963C109.791 105.963 109.532 105.926 109.289 105.851C109.046 105.772 108.834 105.655 108.652 105.501C108.475 105.347 108.332 105.153 108.225 104.92C108.122 104.682 108.071 104.402 108.071 104.08C108.071 103.8 108.148 103.532 108.302 103.275C108.456 103.014 108.706 102.783 109.051 102.582C109.396 102.381 109.847 102.218 110.402 102.092C110.957 101.961 111.639 101.887 112.446 101.868V101.315C112.446 100.764 112.327 100.349 112.089 100.069C111.851 99.7844 111.503 99.6421 111.046 99.6421C110.738 99.6421 110.479 99.6817 110.269 99.7611C110.064 99.8357 109.884 99.9221 109.73 100.02C109.581 100.113 109.45 100.2 109.338 100.279C109.231 100.354 109.123 100.391 109.016 100.391C108.932 100.391 108.86 100.37 108.799 100.328C108.738 100.281 108.687 100.225 108.645 100.16L108.421 99.7611ZM116.878 98.7601V105.851H115.632V98.7601H116.878ZM117.144 96.5341C117.144 96.6554 117.118 96.7697 117.067 96.8771C117.02 96.9797 116.955 97.0731 116.871 97.1571C116.792 97.2364 116.696 97.2994 116.584 97.3461C116.477 97.3927 116.362 97.4161 116.241 97.4161C116.12 97.4161 116.005 97.3927 115.898 97.3461C115.795 97.2994 115.704 97.2364 115.625 97.1571C115.546 97.0731 115.483 96.9797 115.436 96.8771C115.389 96.7697 115.366 96.6554 115.366 96.5341C115.366 96.4127 115.389 96.2984 115.436 96.1911C115.483 96.0791 115.546 95.9834 115.625 95.9041C115.704 95.8201 115.795 95.7547 115.898 95.7081C116.005 95.6614 116.12 95.6381 116.241 95.6381C116.362 95.6381 116.477 95.6614 116.584 95.7081C116.696 95.7547 116.792 95.8201 116.871 95.9041C116.955 95.9834 117.02 96.0791 117.067 96.1911C117.118 96.2984 117.144 96.4127 117.144 96.5341ZM120.213 95.5401V105.851H118.967V95.5401H120.213Z" fill="#222224"/>
<path d="M115.77 13.804C115.674 13.972 115.57 14.096 115.458 14.176C115.354 14.248 115.222 14.284 115.062 14.284C114.894 14.284 114.71 14.224 114.51 14.104C114.318 13.976 114.086 13.836 113.814 13.684C113.542 13.532 113.222 13.396 112.854 13.276C112.494 13.148 112.066 13.084 111.57 13.084C111.122 13.084 110.73 13.14 110.394 13.252C110.058 13.356 109.774 13.504 109.542 13.696C109.318 13.888 109.15 14.12 109.038 14.392C108.926 14.656 108.87 14.948 108.87 15.268C108.87 15.676 108.982 16.016 109.206 16.288C109.438 16.56 109.742 16.792 110.118 16.984C110.494 17.176 110.922 17.348 111.402 17.5C111.882 17.652 112.374 17.816 112.878 17.992C113.382 18.16 113.874 18.36 114.354 18.592C114.834 18.816 115.262 19.104 115.638 19.456C116.014 19.8 116.314 20.224 116.538 20.728C116.77 21.232 116.886 21.844 116.886 22.564C116.886 23.348 116.75 24.084 116.478 24.772C116.214 25.452 115.822 26.048 115.302 26.56C114.79 27.064 114.162 27.464 113.418 27.76C112.674 28.048 111.822 28.192 110.862 28.192C110.31 28.192 109.766 28.136 109.23 28.024C108.694 27.92 108.178 27.768 107.682 27.568C107.194 27.368 106.734 27.128 106.302 26.848C105.87 26.568 105.486 26.256 105.15 25.912L106.098 24.364C106.178 24.252 106.282 24.16 106.41 24.088C106.538 24.008 106.674 23.968 106.818 23.968C107.018 23.968 107.234 24.052 107.466 24.22C107.698 24.38 107.974 24.56 108.294 24.76C108.614 24.96 108.986 25.144 109.41 25.312C109.842 25.472 110.358 25.552 110.958 25.552C111.878 25.552 112.59 25.336 113.094 24.904C113.598 24.464 113.85 23.836 113.85 23.02C113.85 22.564 113.734 22.192 113.502 21.904C113.278 21.616 112.978 21.376 112.602 21.184C112.226 20.984 111.798 20.816 111.318 20.68C110.838 20.544 110.35 20.396 109.854 20.236C109.358 20.076 108.87 19.884 108.39 19.66C107.91 19.436 107.482 19.144 107.106 18.784C106.73 18.424 106.426 17.976 106.194 17.44C105.97 16.896 105.858 16.228 105.858 15.436C105.858 14.804 105.982 14.188 106.23 13.588C106.486 12.988 106.854 12.456 107.334 11.992C107.814 11.528 108.406 11.156 109.11 10.876C109.814 10.596 110.622 10.456 111.534 10.456C112.558 10.456 113.502 10.616 114.366 10.936C115.23 11.256 115.966 11.704 116.574 12.28L115.77 13.804ZM126.686 25.396C127.31 25.396 127.866 25.292 128.354 25.084C128.85 24.876 129.266 24.584 129.602 24.208C129.938 23.832 130.194 23.376 130.37 22.84C130.554 22.304 130.646 21.704 130.646 21.04V10.648H133.874V21.04C133.874 22.072 133.706 23.028 133.37 23.908C133.042 24.78 132.566 25.536 131.942 26.176C131.326 26.808 130.574 27.304 129.686 27.664C128.798 28.016 127.798 28.192 126.686 28.192C125.566 28.192 124.562 28.016 123.674 27.664C122.786 27.304 122.03 26.808 121.406 26.176C120.79 25.536 120.314 24.78 119.978 23.908C119.65 23.028 119.486 22.072 119.486 21.04V10.648H122.714V21.028C122.714 21.692 122.802 22.292 122.978 22.828C123.162 23.364 123.422 23.824 123.758 24.208C124.102 24.584 124.518 24.876 125.006 25.084C125.502 25.292 126.062 25.396 126.686 25.396ZM144.006 25.48C144.606 25.48 145.11 25.408 145.518 25.264C145.926 25.12 146.25 24.928 146.49 24.688C146.738 24.448 146.914 24.168 147.018 23.848C147.13 23.528 147.186 23.188 147.186 22.828C147.186 22.452 147.126 22.116 147.006 21.82C146.886 21.516 146.698 21.26 146.442 21.052C146.186 20.836 145.854 20.672 145.446 20.56C145.046 20.448 144.562 20.392 143.994 20.392H140.742V25.48H144.006ZM140.742 13.144V18.16H143.31C144.414 18.16 145.246 17.96 145.806 17.56C146.374 17.16 146.658 16.524 146.658 15.652C146.658 14.748 146.402 14.104 145.89 13.72C145.378 13.336 144.578 13.144 143.49 13.144H140.742ZM143.49 10.648C144.626 10.648 145.598 10.756 146.406 10.972C147.214 11.188 147.874 11.496 148.386 11.896C148.906 12.296 149.286 12.78 149.526 13.348C149.766 13.916 149.886 14.556 149.886 15.268C149.886 15.676 149.826 16.068 149.706 16.444C149.586 16.812 149.398 17.16 149.142 17.488C148.894 17.808 148.574 18.1 148.182 18.364C147.798 18.628 147.338 18.852 146.802 19.036C149.186 19.572 150.378 20.86 150.378 22.9C150.378 23.636 150.238 24.316 149.958 24.94C149.678 25.564 149.27 26.104 148.734 26.56C148.198 27.008 147.538 27.36 146.754 27.616C145.97 27.872 145.074 28 144.066 28H137.514V10.648H143.49ZM162.551 13.804C162.455 13.972 162.351 14.096 162.239 14.176C162.135 14.248 162.003 14.284 161.843 14.284C161.675 14.284 161.491 14.224 161.291 14.104C161.099 13.976 160.867 13.836 160.595 13.684C160.323 13.532 160.003 13.396 159.635 13.276C159.275 13.148 158.847 13.084 158.351 13.084C157.903 13.084 157.511 13.14 157.175 13.252C156.839 13.356 156.555 13.504 156.323 13.696C156.099 13.888 155.931 14.12 155.819 14.392C155.707 14.656 155.651 14.948 155.651 15.268C155.651 15.676 155.763 16.016 155.987 16.288C156.219 16.56 156.523 16.792 156.899 16.984C157.275 17.176 157.703 17.348 158.183 17.5C158.663 17.652 159.155 17.816 159.659 17.992C160.163 18.16 160.655 18.36 161.135 18.592C161.615 18.816 162.043 19.104 162.419 19.456C162.795 19.8 163.095 20.224 163.319 20.728C163.551 21.232 163.667 21.844 163.667 22.564C163.667 23.348 163.531 24.084 163.259 24.772C162.995 25.452 162.603 26.048 162.083 26.56C161.571 27.064 160.943 27.464 160.199 27.76C159.455 28.048 158.603 28.192 157.643 28.192C157.091 28.192 156.547 28.136 156.011 28.024C155.475 27.92 154.959 27.768 154.463 27.568C153.975 27.368 153.515 27.128 153.083 26.848C152.651 26.568 152.267 26.256 151.931 25.912L152.879 24.364C152.959 24.252 153.063 24.16 153.191 24.088C153.319 24.008 153.455 23.968 153.599 23.968C153.799 23.968 154.015 24.052 154.247 24.22C154.479 24.38 154.755 24.56 155.075 24.76C155.395 24.96 155.767 25.144 156.191 25.312C156.623 25.472 157.139 25.552 157.739 25.552C158.659 25.552 159.371 25.336 159.875 24.904C160.379 24.464 160.631 23.836 160.631 23.02C160.631 22.564 160.515 22.192 160.283 21.904C160.059 21.616 159.759 21.376 159.383 21.184C159.007 20.984 158.579 20.816 158.099 20.68C157.619 20.544 157.131 20.396 156.635 20.236C156.139 20.076 155.651 19.884 155.171 19.66C154.691 19.436 154.263 19.144 153.887 18.784C153.511 18.424 153.207 17.976 152.975 17.44C152.751 16.896 152.639 16.228 152.639 15.436C152.639 14.804 152.763 14.188 153.011 13.588C153.267 12.988 153.635 12.456 154.115 11.992C154.595 11.528 155.187 11.156 155.891 10.876C156.595 10.596 157.403 10.456 158.315 10.456C159.339 10.456 160.283 10.616 161.147 10.936C162.011 11.256 162.747 11.704 163.355 12.28L162.551 13.804ZM178.399 23.908C178.575 23.908 178.731 23.976 178.867 24.112L180.139 25.492C179.435 26.364 178.567 27.032 177.535 27.496C176.511 27.96 175.279 28.192 173.839 28.192C172.551 28.192 171.391 27.972 170.359 27.532C169.335 27.092 168.459 26.48 167.731 25.696C167.003 24.912 166.443 23.976 166.051 22.888C165.667 21.8 165.475 20.612 165.475 19.324C165.475 18.02 165.683 16.828 166.099 15.748C166.515 14.66 167.099 13.724 167.851 12.94C168.611 12.156 169.515 11.548 170.563 11.116C171.611 10.676 172.771 10.456 174.043 10.456C175.307 10.456 176.427 10.664 177.403 11.08C178.387 11.496 179.223 12.04 179.911 12.712L178.831 14.212C178.767 14.308 178.683 14.392 178.579 14.464C178.483 14.536 178.347 14.572 178.171 14.572C178.051 14.572 177.927 14.54 177.799 14.476C177.671 14.404 177.531 14.32 177.379 14.224C177.227 14.12 177.051 14.008 176.851 13.888C176.651 13.768 176.419 13.66 176.155 13.564C175.891 13.46 175.583 13.376 175.231 13.312C174.887 13.24 174.487 13.204 174.031 13.204C173.255 13.204 172.543 13.344 171.895 13.624C171.255 13.896 170.703 14.296 170.239 14.824C169.775 15.344 169.415 15.984 169.159 16.744C168.903 17.496 168.775 18.356 168.775 19.324C168.775 20.3 168.911 21.168 169.183 21.928C169.463 22.688 169.839 23.328 170.311 23.848C170.783 24.368 171.339 24.768 171.979 25.048C172.619 25.32 173.307 25.456 174.043 25.456C174.483 25.456 174.879 25.432 175.231 25.384C175.591 25.336 175.919 25.26 176.215 25.156C176.519 25.052 176.803 24.92 177.067 24.76C177.339 24.592 177.607 24.388 177.871 24.148C177.951 24.076 178.035 24.02 178.123 23.98C178.211 23.932 178.303 23.908 178.399 23.908ZM187.594 18.904C188.202 18.904 188.73 18.828 189.178 18.676C189.634 18.524 190.006 18.316 190.294 18.052C190.59 17.78 190.81 17.46 190.954 17.092C191.098 16.724 191.17 16.32 191.17 15.88C191.17 15 190.878 14.324 190.294 13.852C189.718 13.38 188.834 13.144 187.642 13.144H185.578V18.904H187.594ZM195.898 28H192.982C192.43 28 192.03 27.784 191.782 27.352L188.134 21.796C187.998 21.588 187.846 21.44 187.678 21.352C187.518 21.264 187.278 21.22 186.958 21.22H185.578V28H182.35V10.648H187.642C188.818 10.648 189.826 10.772 190.666 11.02C191.514 11.26 192.206 11.6 192.742 12.04C193.286 12.48 193.686 13.008 193.942 13.624C194.198 14.232 194.326 14.904 194.326 15.64C194.326 16.224 194.238 16.776 194.062 17.296C193.894 17.816 193.646 18.288 193.318 18.712C192.998 19.136 192.598 19.508 192.118 19.828C191.646 20.148 191.106 20.4 190.498 20.584C190.706 20.704 190.898 20.848 191.074 21.016C191.25 21.176 191.41 21.368 191.554 21.592L195.898 28ZM201.012 28H197.772V10.648H201.012V28ZM211.389 25.48C211.989 25.48 212.493 25.408 212.901 25.264C213.309 25.12 213.633 24.928 213.873 24.688C214.121 24.448 214.297 24.168 214.401 23.848C214.513 23.528 214.569 23.188 214.569 22.828C214.569 22.452 214.509 22.116 214.389 21.82C214.269 21.516 214.081 21.26 213.825 21.052C213.569 20.836 213.237 20.672 212.829 20.56C212.429 20.448 211.945 20.392 211.377 20.392H208.125V25.48H211.389ZM208.125 13.144V18.16H210.693C211.797 18.16 212.629 17.96 213.189 17.56C213.757 17.16 214.041 16.524 214.041 15.652C214.041 14.748 213.785 14.104 213.273 13.72C212.761 13.336 211.961 13.144 210.873 13.144H208.125ZM210.873 10.648C212.009 10.648 212.981 10.756 213.789 10.972C214.597 11.188 215.257 11.496 215.769 11.896C216.289 12.296 216.669 12.78 216.909 13.348C217.149 13.916 217.269 14.556 217.269 15.268C217.269 15.676 217.209 16.068 217.089 16.444C216.969 16.812 216.781 17.16 216.525 17.488C216.277 17.808 215.957 18.1 215.565 18.364C215.181 18.628 214.721 18.852 214.185 19.036C216.569 19.572 217.761 20.86 217.761 22.9C217.761 23.636 217.621 24.316 217.341 24.94C217.061 25.564 216.653 26.104 216.117 26.56C215.581 27.008 214.921 27.36 214.137 27.616C213.353 27.872 212.457 28 211.449 28H204.897V10.648H210.873ZM223.934 13.216V18.028H230.006V20.512H223.934V25.42H231.638V28H220.694V10.648H231.638V13.216H223.934ZM38.7054 40.075V43.582H42.8284V44.688H38.7054V49H37.3474V38.969H43.5284V40.075H38.7054ZM54.4357 43.988C54.4357 44.7393 54.3167 45.43 54.0787 46.06C53.8407 46.6853 53.5047 47.2243 53.0707 47.677C52.6367 48.1297 52.1141 48.482 51.5027 48.734C50.8961 48.9813 50.2241 49.105 49.4867 49.105C48.7494 49.105 48.0774 48.9813 47.4707 48.734C46.8641 48.482 46.3437 48.1297 45.9097 47.677C45.4757 47.2243 45.1397 46.6853 44.9017 46.06C44.6637 45.43 44.5447 44.7393 44.5447 43.988C44.5447 43.2367 44.6637 42.5483 44.9017 41.923C45.1397 41.293 45.4757 40.7517 45.9097 40.299C46.3437 39.8417 46.8641 39.487 47.4707 39.235C48.0774 38.983 48.7494 38.857 49.4867 38.857C50.2241 38.857 50.8961 38.983 51.5027 39.235C52.1141 39.487 52.6367 39.8417 53.0707 40.299C53.5047 40.7517 53.8407 41.293 54.0787 41.923C54.3167 42.5483 54.4357 43.2367 54.4357 43.988ZM53.0427 43.988C53.0427 43.372 52.9587 42.819 52.7907 42.329C52.6227 41.839 52.3847 41.426 52.0767 41.09C51.7687 40.7493 51.3954 40.488 50.9567 40.306C50.5181 40.124 50.0281 40.033 49.4867 40.033C48.9501 40.033 48.4624 40.124 48.0237 40.306C47.5851 40.488 47.2094 40.7493 46.8967 41.09C46.5887 41.426 46.3507 41.839 46.1827 42.329C46.0147 42.819 45.9307 43.372 45.9307 43.988C45.9307 44.604 46.0147 45.157 46.1827 45.647C46.3507 46.1323 46.5887 46.5453 46.8967 46.886C47.2094 47.222 47.5851 47.481 48.0237 47.663C48.4624 47.8403 48.9501 47.929 49.4867 47.929C50.0281 47.929 50.5181 47.8403 50.9567 47.663C51.3954 47.481 51.7687 47.222 52.0767 46.886C52.3847 46.5453 52.6227 46.1323 52.7907 45.647C52.9587 45.157 53.0427 44.604 53.0427 43.988ZM59.1577 43.827C59.5497 43.827 59.895 43.7803 60.1937 43.687C60.497 43.589 60.749 43.4537 60.9497 43.281C61.155 43.1037 61.309 42.8937 61.4117 42.651C61.5143 42.4083 61.5657 42.14 61.5657 41.846C61.5657 41.2487 61.3697 40.7983 60.9777 40.495C60.5857 40.1917 59.9977 40.04 59.2137 40.04H57.7297V43.827H59.1577ZM63.7917 49H62.5877C62.3403 49 62.1583 48.9043 62.0417 48.713L59.4377 45.129C59.3583 45.017 59.272 44.9377 59.1787 44.891C59.09 44.8397 58.95 44.814 58.7587 44.814H57.7297V49H56.3787V38.969H59.2137C59.8483 38.969 60.3967 39.0343 60.8587 39.165C61.3207 39.291 61.701 39.4753 61.9997 39.718C62.303 39.9607 62.527 40.2547 62.6717 40.6C62.8163 40.9407 62.8887 41.3233 62.8887 41.748C62.8887 42.1027 62.8327 42.434 62.7207 42.742C62.6087 43.05 62.4453 43.3277 62.2307 43.575C62.0207 43.8177 61.7617 44.0253 61.4537 44.198C61.1503 44.3707 60.805 44.5013 60.4177 44.59C60.5903 44.688 60.7397 44.8303 60.8657 45.017L63.7917 49ZM78.006 43.988C78.006 44.7393 77.887 45.43 77.649 46.06C77.411 46.6853 77.075 47.2243 76.641 47.677C76.207 48.1297 75.6844 48.482 75.073 48.734C74.4664 48.9813 73.7944 49.105 73.057 49.105C72.3197 49.105 71.6477 48.9813 71.041 48.734C70.4344 48.482 69.914 48.1297 69.48 47.677C69.046 47.2243 68.71 46.6853 68.472 46.06C68.234 45.43 68.115 44.7393 68.115 43.988C68.115 43.2367 68.234 42.5483 68.472 41.923C68.71 41.293 69.046 40.7517 69.48 40.299C69.914 39.8417 70.4344 39.487 71.041 39.235C71.6477 38.983 72.3197 38.857 73.057 38.857C73.7944 38.857 74.4664 38.983 75.073 39.235C75.6844 39.487 76.207 39.8417 76.641 40.299C77.075 40.7517 77.411 41.293 77.649 41.923C77.887 42.5483 78.006 43.2367 78.006 43.988ZM76.613 43.988C76.613 43.372 76.529 42.819 76.361 42.329C76.193 41.839 75.955 41.426 75.647 41.09C75.339 40.7493 74.9657 40.488 74.527 40.306C74.0884 40.124 73.5984 40.033 73.057 40.033C72.5204 40.033 72.0327 40.124 71.594 40.306C71.1554 40.488 70.7797 40.7493 70.467 41.09C70.159 41.426 69.921 41.839 69.753 42.329C69.585 42.819 69.501 43.372 69.501 43.988C69.501 44.604 69.585 45.157 69.753 45.647C69.921 46.1323 70.159 46.5453 70.467 46.886C70.7797 47.222 71.1554 47.481 71.594 47.663C72.0327 47.8403 72.5204 47.929 73.057 47.929C73.5984 47.929 74.0884 47.8403 74.527 47.663C74.9657 47.481 75.339 47.222 75.647 46.886C75.955 46.5453 76.193 46.1323 76.361 45.647C76.529 45.157 76.613 44.604 76.613 43.988ZM83.82 47.922C84.2353 47.922 84.6063 47.852 84.933 47.712C85.2596 47.572 85.535 47.376 85.759 47.124C85.9876 46.872 86.1603 46.571 86.277 46.221C86.3983 45.871 86.459 45.486 86.459 45.066V38.969H87.81V45.066C87.81 45.6447 87.7166 46.1813 87.53 46.676C87.348 47.1707 87.0843 47.6 86.739 47.964C86.3983 48.3233 85.9806 48.6057 85.486 48.811C84.9913 49.0163 84.436 49.119 83.82 49.119C83.204 49.119 82.6486 49.0163 82.154 48.811C81.6593 48.6057 81.2393 48.3233 80.894 47.964C80.5486 47.6 80.2826 47.1707 80.096 46.676C79.914 46.1813 79.823 45.6447 79.823 45.066V38.969H81.174V45.059C81.174 45.479 81.2323 45.864 81.349 46.214C81.4703 46.564 81.643 46.865 81.867 47.117C82.0956 47.369 82.3733 47.5673 82.7 47.712C83.0313 47.852 83.4046 47.922 83.82 47.922ZM93.0229 43.827C93.4149 43.827 93.7602 43.7803 94.0589 43.687C94.3622 43.589 94.6142 43.4537 94.8149 43.281C95.0202 43.1037 95.1742 42.8937 95.2769 42.651C95.3796 42.4083 95.4309 42.14 95.4309 41.846C95.4309 41.2487 95.2349 40.7983 94.8429 40.495C94.4509 40.1917 93.8629 40.04 93.0789 40.04H91.5949V43.827H93.0229ZM97.6569 49H96.4529C96.2056 49 96.0236 48.9043 95.9069 48.713L93.3029 45.129C93.2236 45.017 93.1372 44.9377 93.0439 44.891C92.9552 44.8397 92.8152 44.814 92.6239 44.814H91.5949V49H90.2439V38.969H93.0789C93.7136 38.969 94.2619 39.0343 94.7239 39.165C95.1859 39.291 95.5662 39.4753 95.8649 39.718C96.1682 39.9607 96.3922 40.2547 96.5369 40.6C96.6816 40.9407 96.7539 41.3233 96.7539 41.748C96.7539 42.1027 96.6979 42.434 96.5859 42.742C96.4739 43.05 96.3106 43.3277 96.0959 43.575C95.8859 43.8177 95.6269 44.0253 95.3189 44.198C95.0156 44.3707 94.6702 44.5013 94.2829 44.59C94.4556 44.688 94.6049 44.8303 94.7309 45.017L97.6569 49ZM110.73 38.969V49H110.051C109.944 49 109.853 48.9813 109.778 48.944C109.708 48.9067 109.638 48.8437 109.568 48.755L103.765 41.195C103.775 41.3117 103.782 41.426 103.786 41.538C103.791 41.65 103.793 41.755 103.793 41.853V49H102.603V38.969H103.303C103.364 38.969 103.415 38.9737 103.457 38.983C103.499 38.9877 103.537 38.9993 103.569 39.018C103.602 39.032 103.635 39.0553 103.667 39.088C103.7 39.116 103.735 39.1533 103.772 39.2L109.575 46.753C109.566 46.6317 109.557 46.515 109.547 46.403C109.543 46.2863 109.54 46.1767 109.54 46.074V38.969H110.73ZM119.483 47.894L119.476 49H113.295V38.969H119.476V40.075H114.653V43.407H118.559V44.471H114.653V47.894H119.483ZM134.374 38.969L131.245 49H130.027L127.486 41.349C127.462 41.2743 127.439 41.195 127.416 41.111C127.397 41.027 127.376 40.9383 127.353 40.845C127.329 40.9383 127.306 41.027 127.283 41.111C127.259 41.195 127.236 41.2743 127.213 41.349L124.658 49H123.44L120.311 38.969H121.438C121.559 38.969 121.659 38.9993 121.739 39.06C121.823 39.1207 121.876 39.1977 121.9 39.291L123.972 46.263C124.004 46.389 124.035 46.5243 124.063 46.669C124.095 46.8137 124.126 46.9677 124.154 47.131C124.186 46.9677 124.219 46.8137 124.252 46.669C124.289 46.5197 124.329 46.3843 124.371 46.263L126.73 39.291C126.758 39.2117 126.811 39.1393 126.891 39.074C126.975 39.004 127.075 38.969 127.192 38.969H127.584C127.705 38.969 127.803 38.9993 127.878 39.06C127.952 39.1207 128.008 39.1977 128.046 39.291L130.398 46.263C130.44 46.3843 130.477 46.515 130.51 46.655C130.547 46.795 130.582 46.942 130.615 47.096C130.638 46.942 130.664 46.795 130.692 46.655C130.72 46.515 130.75 46.3843 130.783 46.263L132.862 39.291C132.885 39.207 132.936 39.1323 133.016 39.067C133.1 39.0017 133.2 38.969 133.317 38.969H134.374ZM141.558 47.859V49H135.867V38.969H137.218V47.859H141.558ZM149.246 47.894L149.239 49H143.058V38.969H149.239V40.075H144.416V43.407H148.322V44.471H144.416V47.894H149.246ZM157.921 40.11H154.673V49H153.322V40.11H150.067V38.969H157.921V40.11ZM166.193 40.11H162.945V49H161.594V40.11H158.339V38.969H166.193V40.11ZM173.869 47.894L173.862 49H167.681V38.969H173.862V40.075H169.039V43.407H172.945V44.471H169.039V47.894H173.869ZM178.54 43.827C178.932 43.827 179.278 43.7803 179.576 43.687C179.88 43.589 180.132 43.4537 180.332 43.281C180.538 43.1037 180.692 42.8937 180.794 42.651C180.897 42.4083 180.948 42.14 180.948 41.846C180.948 41.2487 180.752 40.7983 180.36 40.495C179.968 40.1917 179.38 40.04 178.596 40.04H177.112V43.827H178.54ZM183.174 49H181.97C181.723 49 181.541 48.9043 181.424 48.713L178.82 45.129C178.741 45.017 178.655 44.9377 178.561 44.891C178.473 44.8397 178.333 44.814 178.141 44.814H177.112V49H175.761V38.969H178.596C179.231 38.969 179.779 39.0343 180.241 39.165C180.703 39.291 181.084 39.4753 181.382 39.718C181.686 39.9607 181.91 40.2547 182.054 40.6C182.199 40.9407 182.271 41.3233 182.271 41.748C182.271 42.1027 182.215 42.434 182.103 42.742C181.991 43.05 181.828 43.3277 181.613 43.575C181.403 43.8177 181.144 44.0253 180.836 44.198C180.533 44.3707 180.188 44.5013 179.8 44.59C179.973 44.688 180.122 44.8303 180.248 45.017L183.174 49ZM192.983 45.276L191.408 41.195C191.361 41.0737 191.312 40.9337 191.261 40.775C191.21 40.6117 191.161 40.439 191.114 40.257C191.016 40.635 190.916 40.95 190.813 41.202L189.238 45.276H192.983ZM195.811 49H194.761C194.64 49 194.542 48.9697 194.467 48.909C194.392 48.8483 194.336 48.7713 194.299 48.678L193.361 46.256H188.86L187.922 48.678C187.894 48.762 187.84 48.8367 187.761 48.902C187.682 48.9673 187.584 49 187.467 49H186.417L190.428 38.969H191.8L195.811 49ZM205.258 38.969V49H204.579C204.471 49 204.38 48.9813 204.306 48.944C204.236 48.9067 204.166 48.8437 204.096 48.755L198.293 41.195C198.302 41.3117 198.309 41.426 198.314 41.538C198.318 41.65 198.321 41.755 198.321 41.853V49H197.131V38.969H197.831C197.891 38.969 197.943 38.9737 197.985 38.983C198.027 38.9877 198.064 38.9993 198.097 39.018C198.129 39.032 198.162 39.0553 198.195 39.088C198.227 39.116 198.262 39.1533 198.3 39.2L204.103 46.753C204.093 46.6317 204.084 46.515 204.075 46.403C204.07 46.2863 204.068 46.1767 204.068 46.074V38.969H205.258ZM216.516 43.988C216.516 44.7393 216.397 45.423 216.159 46.039C215.921 46.655 215.585 47.1823 215.151 47.621C214.717 48.0597 214.194 48.4003 213.583 48.643C212.976 48.881 212.304 49 211.567 49H207.822V38.969H211.567C212.304 38.969 212.976 39.0903 213.583 39.333C214.194 39.571 214.717 39.9117 215.151 40.355C215.585 40.7937 215.921 41.321 216.159 41.937C216.397 42.553 216.516 43.2367 216.516 43.988ZM215.123 43.988C215.123 43.372 215.039 42.8213 214.871 42.336C214.703 41.8507 214.465 41.44 214.157 41.104C213.849 40.768 213.476 40.5113 213.037 40.334C212.598 40.1567 212.108 40.068 211.567 40.068H209.18V47.901H211.567C212.108 47.901 212.598 47.8123 213.037 47.635C213.476 47.4577 213.849 47.2033 214.157 46.872C214.465 46.536 214.703 46.1253 214.871 45.64C215.039 45.1547 215.123 44.604 215.123 43.988ZM225.015 44.17C225.403 44.17 225.743 44.1187 226.037 44.016C226.336 43.9133 226.586 43.771 226.786 43.589C226.992 43.4023 227.146 43.1807 227.248 42.924C227.351 42.6673 227.402 42.385 227.402 42.077C227.402 41.4377 227.204 40.9383 226.807 40.579C226.415 40.2197 225.818 40.04 225.015 40.04H223.405V44.17H225.015ZM225.015 38.969C225.65 38.969 226.201 39.0437 226.667 39.193C227.139 39.3377 227.528 39.5453 227.836 39.816C228.144 40.0867 228.373 40.4133 228.522 40.796C228.676 41.1787 228.753 41.6057 228.753 42.077C228.753 42.5437 228.672 42.9707 228.508 43.358C228.345 43.7453 228.105 44.079 227.787 44.359C227.475 44.639 227.085 44.8583 226.618 45.017C226.156 45.171 225.622 45.248 225.015 45.248H223.405V49H222.054V38.969H225.015ZM233.242 43.827C233.634 43.827 233.979 43.7803 234.278 43.687C234.581 43.589 234.833 43.4537 235.034 43.281C235.239 43.1037 235.393 42.8937 235.496 42.651C235.598 42.4083 235.65 42.14 235.65 41.846C235.65 41.2487 235.454 40.7983 235.062 40.495C234.67 40.1917 234.082 40.04 233.298 40.04H231.814V43.827H233.242ZM237.876 49H236.672C236.424 49 236.242 48.9043 236.126 48.713L233.522 45.129C233.442 45.017 233.356 44.9377 233.263 44.891C233.174 44.8397 233.034 44.814 232.843 44.814H231.814V49H230.463V38.969H233.298C233.932 38.969 234.481 39.0343 234.943 39.165C235.405 39.291 235.785 39.4753 236.084 39.718C236.387 39.9607 236.611 40.2547 236.756 40.6C236.9 40.9407 236.973 41.3233 236.973 41.748C236.973 42.1027 236.917 42.434 236.805 42.742C236.693 43.05 236.529 43.3277 236.315 43.575C236.105 43.8177 235.846 44.0253 235.538 44.198C235.234 44.3707 234.889 44.5013 234.502 44.59C234.674 44.688 234.824 44.8303 234.95 45.017L237.876 49ZM248.412 43.988C248.412 44.7393 248.293 45.43 248.055 46.06C247.817 46.6853 247.481 47.2243 247.047 47.677C246.613 48.1297 246.091 48.482 245.479 48.734C244.873 48.9813 244.201 49.105 243.463 49.105C242.726 49.105 242.054 48.9813 241.447 48.734C240.841 48.482 240.32 48.1297 239.886 47.677C239.452 47.2243 239.116 46.6853 238.878 46.06C238.64 45.43 238.521 44.7393 238.521 43.988C238.521 43.2367 238.64 42.5483 238.878 41.923C239.116 41.293 239.452 40.7517 239.886 40.299C240.32 39.8417 240.841 39.487 241.447 39.235C242.054 38.983 242.726 38.857 243.463 38.857C244.201 38.857 244.873 38.983 245.479 39.235C246.091 39.487 246.613 39.8417 247.047 40.299C247.481 40.7517 247.817 41.293 248.055 41.923C248.293 42.5483 248.412 43.2367 248.412 43.988ZM247.019 43.988C247.019 43.372 246.935 42.819 246.767 42.329C246.599 41.839 246.361 41.426 246.053 41.09C245.745 40.7493 245.372 40.488 244.933 40.306C244.495 40.124 244.005 40.033 243.463 40.033C242.927 40.033 242.439 40.124 242 40.306C241.562 40.488 241.186 40.7493 240.873 41.09C240.565 41.426 240.327 41.839 240.159 42.329C239.991 42.819 239.907 43.372 239.907 43.988C239.907 44.604 239.991 45.157 240.159 45.647C240.327 46.1323 240.565 46.5453 240.873 46.886C241.186 47.222 241.562 47.481 242 47.663C242.439 47.8403 242.927 47.929 243.463 47.929C244.005 47.929 244.495 47.8403 244.933 47.663C245.372 47.481 245.745 47.222 246.053 46.886C246.361 46.5453 246.599 46.1323 246.767 45.647C246.935 45.157 247.019 44.604 247.019 43.988ZM260.792 38.969V49H259.602V41.629C259.602 41.531 259.605 41.426 259.609 41.314C259.619 41.202 259.628 41.0877 259.637 40.971L256.193 47.243C256.086 47.453 255.923 47.558 255.703 47.558H255.507C255.288 47.558 255.125 47.453 255.017 47.243L251.503 40.943C251.531 41.1903 251.545 41.419 251.545 41.629V49H250.355V38.969H251.356C251.478 38.969 251.571 38.9807 251.636 39.004C251.702 39.0273 251.765 39.0927 251.825 39.2L255.29 45.374C255.346 45.486 255.4 45.6027 255.451 45.724C255.507 45.8453 255.559 45.969 255.605 46.095C255.652 45.969 255.701 45.8453 255.752 45.724C255.804 45.598 255.86 45.479 255.92 45.367L259.322 39.2C259.378 39.0927 259.439 39.0273 259.504 39.004C259.574 38.9807 259.67 38.969 259.791 38.969H260.792ZM272.625 43.988C272.625 44.7393 272.506 45.43 272.268 46.06C272.03 46.6853 271.694 47.2243 271.26 47.677C270.826 48.1297 270.304 48.482 269.692 48.734C269.086 48.9813 268.414 49.105 267.676 49.105C266.939 49.105 266.267 48.9813 265.66 48.734C265.054 48.482 264.533 48.1297 264.099 47.677C263.665 47.2243 263.329 46.6853 263.091 46.06C262.853 45.43 262.734 44.7393 262.734 43.988C262.734 43.2367 262.853 42.5483 263.091 41.923C263.329 41.293 263.665 40.7517 264.099 40.299C264.533 39.8417 265.054 39.487 265.66 39.235C266.267 38.983 266.939 38.857 267.676 38.857C268.414 38.857 269.086 38.983 269.692 39.235C270.304 39.487 270.826 39.8417 271.26 40.299C271.694 40.7517 272.03 41.293 272.268 41.923C272.506 42.5483 272.625 43.2367 272.625 43.988ZM271.232 43.988C271.232 43.372 271.148 42.819 270.98 42.329C270.812 41.839 270.574 41.426 270.266 41.09C269.958 40.7493 269.585 40.488 269.146 40.306C268.708 40.124 268.218 40.033 267.676 40.033C267.14 40.033 266.652 40.124 266.213 40.306C265.775 40.488 265.399 40.7493 265.086 41.09C264.778 41.426 264.54 41.839 264.372 42.329C264.204 42.819 264.12 43.372 264.12 43.988C264.12 44.604 264.204 45.157 264.372 45.647C264.54 46.1323 264.778 46.5453 265.086 46.886C265.399 47.222 265.775 47.481 266.213 47.663C266.652 47.8403 267.14 47.929 267.676 47.929C268.218 47.929 268.708 47.8403 269.146 47.663C269.585 47.481 269.958 47.222 270.266 46.886C270.574 46.5453 270.812 46.1323 270.98 45.647C271.148 45.157 271.232 44.604 271.232 43.988ZM280.9 40.11H277.652V49H276.301V40.11H273.046V38.969H280.9V40.11ZM283.746 49H282.388V38.969H283.746V49ZM295.58 43.988C295.58 44.7393 295.461 45.43 295.223 46.06C294.985 46.6853 294.649 47.2243 294.215 47.677C293.781 48.1297 293.259 48.482 292.647 48.734C292.041 48.9813 291.369 49.105 290.631 49.105C289.894 49.105 289.222 48.9813 288.615 48.734C288.009 48.482 287.488 48.1297 287.054 47.677C286.62 47.2243 286.284 46.6853 286.046 46.06C285.808 45.43 285.689 44.7393 285.689 43.988C285.689 43.2367 285.808 42.5483 286.046 41.923C286.284 41.293 286.62 40.7517 287.054 40.299C287.488 39.8417 288.009 39.487 288.615 39.235C289.222 38.983 289.894 38.857 290.631 38.857C291.369 38.857 292.041 38.983 292.647 39.235C293.259 39.487 293.781 39.8417 294.215 40.299C294.649 40.7517 294.985 41.293 295.223 41.923C295.461 42.5483 295.58 43.2367 295.58 43.988ZM294.187 43.988C294.187 43.372 294.103 42.819 293.935 42.329C293.767 41.839 293.529 41.426 293.221 41.09C292.913 40.7493 292.54 40.488 292.101 40.306C291.663 40.124 291.173 40.033 290.631 40.033C290.095 40.033 289.607 40.124 289.168 40.306C288.73 40.488 288.354 40.7493 288.041 41.09C287.733 41.426 287.495 41.839 287.327 42.329C287.159 42.819 287.075 43.372 287.075 43.988C287.075 44.604 287.159 45.157 287.327 45.647C287.495 46.1323 287.733 46.5453 288.041 46.886C288.354 47.222 288.73 47.481 289.168 47.663C289.607 47.8403 290.095 47.929 290.631 47.929C291.173 47.929 291.663 47.8403 292.101 47.663C292.54 47.481 292.913 47.222 293.221 46.886C293.529 46.5453 293.767 46.1323 293.935 45.647C294.103 45.157 294.187 44.604 294.187 43.988ZM305.65 38.969V49H304.971C304.864 49 304.773 48.9813 304.698 48.944C304.628 48.9067 304.558 48.8437 304.488 48.755L298.685 41.195C298.695 41.3117 298.702 41.426 298.706 41.538C298.711 41.65 298.713 41.755 298.713 41.853V49H297.523V38.969H298.223C298.284 38.969 298.335 38.9737 298.377 38.983C298.419 38.9877 298.457 38.9993 298.489 39.018C298.522 39.032 298.555 39.0553 298.587 39.088C298.62 39.116 298.655 39.1533 298.692 39.2L304.495 46.753C304.486 46.6317 304.477 46.515 304.467 46.403C304.463 46.2863 304.46 46.1767 304.46 46.074V38.969H305.65Z" fill="#222224"/>
</svg>
