<svg width="16.000000" height="16.000000" viewBox="0 0 16 16" fill="none" xmlns="http://www.w3.org/2000/svg" xmlns:xlink="http://www.w3.org/1999/xlink">
	<desc>
			Created with Pixso.
	</desc>
	<defs>
		<clipPath id="clip190_1386">
			<rect id="twitter-brands 1" width="15.892374" height="16.000000" transform="translate(-0.840698 0.000000)" fill="white" fill-opacity="0"/>
		</clipPath>
	</defs>
	<rect id="twitter-brands 1" width="15.892374" height="16.000000" transform="translate(-0.840698 0.000000)" fill="#FFFFFF" fill-opacity="0"/>
	<g clip-path="url(#clip190_1386)">
		<path id="Vector" d="M13.41 4.74C13.42 4.88 13.42 5.02 13.42 5.16C13.42 9.5 10.15 14.49 4.16 14.49C2.31 14.49 0.6 13.95 -0.85 13.02C-0.58 13.05 -0.33 13.06 -0.06 13.06C1.46 13.06 2.87 12.54 3.98 11.66C2.55 11.63 1.35 10.69 0.94 9.39C1.14 9.42 1.34 9.44 1.55 9.44C1.85 9.44 2.14 9.4 2.41 9.32C0.92 9.02 -0.2 7.7 -0.2 6.11L-0.2 6.07C0.23 6.31 0.74 6.46 1.27 6.48C0.39 5.89 -0.18 4.89 -0.18 3.75C-0.18 3.14 -0.02 2.58 0.26 2.1C1.87 4.09 4.28 5.39 6.98 5.53C6.93 5.28 6.9 5.03 6.9 4.78C6.9 2.97 8.35 1.5 10.16 1.5C11.09 1.5 11.94 1.89 12.54 2.53C13.27 2.39 13.98 2.12 14.6 1.74C14.36 2.5 13.85 3.14 13.17 3.55C13.83 3.48 14.46 3.29 15.05 3.04C14.6 3.69 14.05 4.27 13.41 4.74Z" fill="#000000" fill-opacity="1.000000" fill-rule="nonzero"/>
	</g>
</svg>
