<svg width="30.000000" height="30.000000" viewBox="0 0 30 30" fill="none" xmlns="http://www.w3.org/2000/svg" xmlns:xlink="http://www.w3.org/1999/xlink">
	<desc>
			Created with Pixso.
	</desc>
	<defs/>
	<path id="Polygon 1" d="M19.5 13.26L14.25 10.23C12.91 9.46 11.25 10.42 11.25 11.96L11.25 18.03C11.25 19.57 12.91 20.53 14.25 19.76L19.5 16.73C20.83 15.96 20.83 14.03 19.5 13.26Z" fill="#F25822" fill-opacity="1.000000" fill-rule="evenodd"/>
	<path id="Ellipse 1" d="M15 0C6.71 0 0 6.71 0 15C0 23.28 6.71 30 15 30C23.28 30 30 23.28 30 15C30 6.71 23.28 0 15 0ZM10.39 3.87C11.8 3.29 13.34 3 15 3C16.65 3 18.19 3.29 19.6 3.87C21.02 4.46 22.31 5.34 23.48 6.51C24.65 7.68 25.53 8.97 26.12 10.39C26.7 11.8 27 13.34 27 15C27 16.65 26.7 18.19 26.12 19.6C25.53 21.02 24.65 22.31 23.48 23.48C22.31 24.65 21.02 25.53 19.6 26.12C18.19 26.7 16.65 27 15 27C13.34 27 11.8 26.7 10.39 26.12C8.97 25.53 7.68 24.65 6.51 23.48C5.34 22.31 4.46 21.02 3.87 19.6C3.29 18.19 3 16.65 3 15C3 13.34 3.29 11.8 3.87 10.39C4.46 8.97 5.34 7.68 6.51 6.51C7.68 5.34 8.97 4.46 10.39 3.87Z" fill="#DDDDDD" fill-opacity="1.000000" fill-rule="evenodd"/>
</svg>
