<svg width="135.000000" height="30.000000" viewBox="0 0 135 30" fill="none" xmlns="http://www.w3.org/2000/svg" xmlns:xlink="http://www.w3.org/1999/xlink">
	<desc>
			Created with Pixso.
	</desc>
	<defs/>
	<path id="Polygon 1" d="M19.5 13.26L14.25 10.23C12.91 9.46 11.25 10.42 11.25 11.96L11.25 18.03C11.25 19.57 12.91 20.53 14.25 19.76L19.5 16.73C20.83 15.96 20.83 14.03 19.5 13.26Z" fill="#F25822" fill-opacity="1.000000" fill-rule="evenodd"/>
	<path id="Ellipse 1" d="M15 0C6.71 0 0 6.71 0 15C0 23.28 6.71 30 15 30C23.28 30 30 23.28 30 15C30 6.71 23.28 0 15 0ZM10.39 3.87Q12.51 3 15 3Q17.48 3 19.6 3.87Q21.72 4.75 23.48 6.51Q25.24 8.27 26.12 10.39Q27 12.51 27 15Q27 17.48 26.12 19.6Q25.24 21.72 23.48 23.48Q21.72 25.24 19.6 26.12Q17.48 27 15 27Q12.51 27 10.39 26.12Q8.27 25.24 6.51 23.48Q4.75 21.72 3.87 19.6Q3 17.48 3 15Q3 12.51 3.87 10.39Q4.75 8.27 6.51 6.51Q8.27 4.75 10.39 3.87Z" fill="#DDDDDD" fill-opacity="1.000000" fill-rule="evenodd"/>
	<path id="Watch Video" d="M104.71 9.85C104.95 10.08 105.23 10.19 105.55 10.19C105.88 10.19 106.16 10.08 106.39 9.85C106.63 9.6 106.75 9.33 106.75 9.01C106.75 8.68 106.63 8.41 106.39 8.17C106.16 7.93 105.88 7.81 105.55 7.81C105.23 7.81 104.95 7.93 104.71 8.17C104.48 8.41 104.37 8.68 104.37 9.01C104.37 9.33 104.48 9.6 104.71 9.85ZM45.22 8.09L48.16 18.59L50.52 18.59L52.48 11.66L54.46 18.59L56.82 18.59L59.76 8.09L57.58 8.09L55.57 15.88L53.37 8.09L51.6 8.09L49.41 15.88L47.4 8.09L45.22 8.09ZM88.96 11.71C88.43 11.16 87.75 10.88 86.93 10.88C85.91 10.88 85.17 11.23 84.7 11.93L84.7 8.09L82.76 8.09L82.76 18.59L84.7 18.59L84.7 14.54C84.7 13.92 84.85 13.46 85.15 13.15C85.45 12.84 85.85 12.68 86.35 12.68C86.8 12.68 87.16 12.82 87.43 13.09C87.7 13.35 87.83 13.73 87.83 14.23L87.83 18.59L89.77 18.59L89.77 13.99C89.77 13.02 89.5 12.26 88.96 11.71ZM94.33 8.09L97.86 18.59L100.42 18.59L103.96 8.09L101.7 8.09L99.15 16.16L96.58 8.09L94.33 8.09ZM115.92 8.09L113.98 8.09L113.98 11.98C113.41 11.25 112.6 10.88 111.55 10.88C110.54 10.88 109.68 11.27 108.96 12.04Q108.55 12.47 108.3 12.98Q107.89 13.81 107.89 14.84Q107.89 15.85 108.29 16.68Q108.54 17.21 108.96 17.66C109.68 18.42 110.54 18.8 111.55 18.8C112.6 18.8 113.41 18.44 113.98 17.7L113.98 18.59L115.92 18.59L115.92 8.09ZM71.96 12.95L73.65 12.95L73.65 11.09L71.96 11.09L71.96 8.99L70.02 9.58L70.02 11.09L68.72 11.09L68.72 12.95L70.02 12.95L70.02 16.07Q70.02 17.53 70.74 18.14Q70.78 18.18 70.83 18.21C71.38 18.62 72.32 18.74 73.65 18.59L73.65 16.84C73.28 16.86 72.97 16.86 72.72 16.85C72.47 16.83 72.28 16.76 72.15 16.64C72.02 16.52 71.96 16.33 71.96 16.07L71.96 12.95ZM67.61 11.09L65.67 11.09L65.67 11.98C65.09 11.25 64.28 10.88 63.23 10.88Q62.6 10.88 62.05 11.08Q61.28 11.36 60.65 12.04Q60.24 12.47 59.99 12.98Q59.58 13.81 59.58 14.84Q59.58 15.85 59.98 16.68Q60.23 17.21 60.65 17.66Q61.27 18.31 62.02 18.59Q62.59 18.8 63.23 18.8Q64.26 18.8 64.99 18.33Q65.37 18.08 65.67 17.7L65.67 18.59L67.61 18.59L67.61 11.09ZM76.56 18.41Q77.36 18.8 78.35 18.8C79.08 18.8 79.75 18.62 80.35 18.28C80.95 17.92 81.41 17.44 81.74 16.85L80.06 15.89C79.91 16.2 79.68 16.45 79.37 16.62C79.07 16.79 78.73 16.88 78.34 16.88Q77.79 16.88 77.36 16.65Q77.11 16.52 76.9 16.31C76.52 15.92 76.33 15.43 76.33 14.84C76.33 14.24 76.52 13.75 76.9 13.37Q77.12 13.14 77.4 13Q77.81 12.79 78.34 12.79Q78.78 12.79 79.16 12.95Q79.26 13 79.36 13.06C79.67 13.24 79.9 13.48 80.05 13.79L81.71 12.82C81.4 12.23 80.95 11.76 80.35 11.41C79.75 11.06 79.08 10.88 78.35 10.88Q77.36 10.88 76.56 11.27Q75.99 11.55 75.52 12.02Q75.05 12.5 74.77 13.07Q74.39 13.86 74.39 14.84Q74.39 15.82 74.77 16.61Q75.05 17.18 75.52 17.66Q75.99 18.13 76.56 18.41ZM119.83 16.52Q119.47 16.18 119.32 15.64L124.98 15.64C125.03 15.36 125.05 15.09 125.05 14.84Q125.05 13.79 124.63 12.96Q124.38 12.45 123.97 12.02Q123.53 11.55 123 11.27Q122.23 10.88 121.26 10.88C120.1 10.88 119.15 11.26 118.41 12.02C117.67 12.77 117.3 13.71 117.3 14.84Q117.3 15.9 117.73 16.74Q118 17.25 118.42 17.68C119.17 18.43 120.17 18.8 121.41 18.8C122.85 18.8 123.94 18.27 124.68 17.2L123.12 16.29C122.74 16.79 122.18 17.04 121.44 17.04Q120.38 17.04 119.83 16.52ZM129.91 18.8C131.02 18.8 131.96 18.42 132.73 17.66C133.5 16.89 133.89 15.95 133.89 14.84C133.89 13.73 133.5 12.8 132.73 12.04C131.96 11.27 131.02 10.88 129.91 10.88C128.8 10.88 127.86 11.27 127.09 12.04C126.33 12.8 125.95 13.73 125.95 14.84C125.95 15.95 126.33 16.89 127.09 17.66C127.86 18.42 128.8 18.8 129.91 18.8ZM104.59 11.09L104.59 18.59L106.53 18.59L106.53 11.09L104.59 11.09ZM123.12 14.14L119.29 14.14C119.4 13.66 119.63 13.29 119.97 13.03Q120.02 12.98 120.08 12.94Q120.56 12.62 121.26 12.62C121.7 12.62 122.09 12.75 122.43 13C122.78 13.25 123.01 13.63 123.12 14.14ZM63.59 16.95C62.99 16.95 62.49 16.76 62.1 16.37Q61.91 16.18 61.79 15.95Q61.52 15.47 61.52 14.84C61.52 14.22 61.71 13.72 62.1 13.33C62.49 12.93 62.99 12.73 63.59 12.73C64.19 12.73 64.68 12.93 65.07 13.33C65.47 13.72 65.67 14.22 65.67 14.84Q65.67 15.45 65.41 15.92Q65.28 16.16 65.07 16.37C64.68 16.76 64.19 16.95 63.59 16.95ZM110.91 16.73Q110.64 16.59 110.41 16.37Q110.23 16.18 110.1 15.95Q109.83 15.47 109.83 14.84C109.83 14.22 110.02 13.72 110.41 13.33Q110.65 13.09 110.94 12.94Q111.37 12.73 111.91 12.73C112.51 12.73 113.01 12.93 113.4 13.33C113.79 13.72 113.98 14.22 113.98 14.84Q113.98 15.47 113.71 15.95Q113.58 16.18 113.4 16.37C113.01 16.76 112.51 16.95 111.91 16.95Q111.35 16.95 110.91 16.73ZM128.99 16.71Q128.7 16.57 128.46 16.33C128.08 15.94 127.89 15.44 127.89 14.84C127.89 14.24 128.08 13.75 128.46 13.36Q128.7 13.11 128.99 12.97Q129.4 12.77 129.91 12.77Q130.42 12.77 130.84 12.97Q131.13 13.11 131.37 13.36C131.76 13.75 131.95 14.24 131.95 14.84C131.95 15.44 131.76 15.94 131.37 16.33Q131.13 16.57 130.84 16.71Q130.42 16.91 129.91 16.91Q129.4 16.91 128.99 16.71Z" fill="#AAAAAA" fill-opacity="1.000000" fill-rule="evenodd"/>
</svg>
